<svg width="28" height="28" viewBox="0 0 28 28" fill="none" xmlns="http://www.w3.org/2000/svg">
<path d="M23.2168 27.4167C23.0336 27.4167 22.8528 27.3583 22.7011 27.2487L14.0001 20.916L5.29911 27.251C5.03311 27.4423 4.68078 27.4727 4.38678 27.321C4.09511 27.1728 3.90845 26.8718 3.90845 26.5428V6.53333C3.90845 5.08667 5.08678 3.90833 6.53345 3.90833H21.4644C22.9111 3.90833 24.0894 5.08667 24.0894 6.53333V26.5417C24.0894 26.8707 23.9051 27.1717 23.6111 27.321C23.4874 27.3852 23.3509 27.4167 23.2144 27.4167H23.2168ZM14.0001 18.9583C14.1809 18.9583 14.3618 19.0143 14.5134 19.1263L22.3418 24.8232V6.53333C22.3418 6.05267 21.9486 5.65833 21.4668 5.65833H6.53345C6.05161 5.65833 5.65845 6.05267 5.65845 6.53333V24.8232L13.4868 19.1263C13.6384 19.0143 13.8193 18.9583 14.0001 18.9583Z" fill="#F7F9F9"/>
</svg>
