<svg width="28" height="28" viewBox="0 0 28 28" fill="none" xmlns="http://www.w3.org/2000/svg">
<path d="M24.5 8.55983H19.915L20.349 3.57583C20.391 3.09516 20.034 2.67166 19.5533 2.62849C19.0668 2.59349 18.648 2.94349 18.606 3.42533L18.1592 8.55866H10.7858L11.2175 3.57699C11.2607 3.09516 10.9025 2.67166 10.4242 2.62849C9.93417 2.59349 9.51767 2.94349 9.47567 3.42533L9.03 8.55866H4.41233C3.92933 8.55866 3.53733 8.95183 3.53733 9.43366C3.53733 9.91549 3.92933 10.3087 4.41233 10.3087H8.87833L8.23667 17.6902H3.5C3.017 17.6902 2.625 18.0822 2.625 18.5652C2.625 19.0482 3.017 19.4402 3.5 19.4402H8.085L7.651 24.4242C7.609 24.9048 7.966 25.3283 8.44667 25.3715L8.52367 25.375C8.97283 25.375 9.35433 25.0308 9.394 24.5747L9.84083 19.4413H17.2142L16.7825 24.423C16.7405 24.9048 17.0975 25.3283 17.5782 25.3715L17.6552 25.375C18.1043 25.375 18.4858 25.0308 18.5255 24.5747L18.9712 19.4413H23.5877C24.0695 19.4413 24.4627 19.0482 24.4627 18.5663C24.4627 18.0845 24.0695 17.6913 23.5877 17.6913H19.1217L19.7633 10.3098H24.5C24.983 10.3098 25.375 9.91783 25.375 9.43483C25.375 8.95183 24.983 8.55983 24.5 8.55983ZM17.3658 17.6902H9.9925L10.6342 10.3098H18.0075L17.3658 17.6902Z" fill="#F7F9F9"/>
</svg>
