<svg width="28" height="28" viewBox="0 0 28 28" fill="none" xmlns="http://www.w3.org/2000/svg">
<path d="M26.3434 8.575L14.5543 2.21317C14.2078 2.0265 13.7913 2.0265 13.4459 2.21317L1.66261 8.575C1.09561 8.883 0.884446 9.59 1.19011 10.157C1.40011 10.5478 1.80261 10.7695 2.21678 10.7695C2.40345 10.7695 2.59478 10.7252 2.77095 10.6295L3.62728 10.1675L5.48228 23.2925C5.73428 24.7088 7.01061 25.6982 8.58561 25.6982H19.4146C20.9896 25.6982 22.2659 24.7088 22.5203 23.2622L24.3729 10.1663L25.2328 10.6307C25.7986 10.9375 26.5068 10.7263 26.8124 10.1593C27.1193 9.59233 26.9058 8.88417 26.3411 8.5785L26.3434 8.575ZM14.0001 18.0075C11.9059 18.0075 10.2084 16.31 10.2084 14.2158C10.2084 12.1217 11.9059 10.4242 14.0001 10.4242C16.0943 10.4242 17.7918 12.1217 17.7918 14.2158C17.7918 16.31 16.0943 18.0075 14.0001 18.0075Z" fill="#F7F9F9"/>
</svg>
