<svg width="28" height="28" viewBox="0 0 28 28" fill="none" xmlns="http://www.w3.org/2000/svg">
<path d="M23.0416 25.6667H4.95825C3.51159 25.6667 2.33325 24.4883 2.33325 23.0417V4.95833C2.33325 3.51167 3.51159 2.33333 4.95825 2.33333H23.0416C24.4883 2.33333 25.6666 3.51167 25.6666 4.95833V23.0417C25.6666 24.4883 24.4883 25.6667 23.0416 25.6667ZM4.95825 4.08333C4.47525 4.08333 4.08325 4.4765 4.08325 4.95833V23.0417C4.08325 23.5235 4.47525 23.9167 4.95825 23.9167H23.0416C23.5246 23.9167 23.9166 23.5235 23.9166 23.0417V4.95833C23.9166 4.4765 23.5246 4.08333 23.0416 4.08333H4.95825Z" fill="#F7F9F9"/>
<path d="M19.8332 10.08H8.1665C7.6835 10.08 7.2915 9.68683 7.2915 9.205C7.2915 8.72316 7.6835 8.33 8.1665 8.33H19.8332C20.3162 8.33 20.7082 8.72083 20.7082 9.205C20.7082 9.68916 20.3162 10.08 19.8332 10.08ZM19.8332 14.875H8.1665C7.6835 14.875 7.2915 14.483 7.2915 14C7.2915 13.517 7.6835 13.125 8.1665 13.125H19.8332C20.3162 13.125 20.7082 13.517 20.7082 14C20.7082 14.483 20.3162 14.875 19.8332 14.875ZM13.9998 19.67H8.1665C7.6835 19.67 7.2915 19.2792 7.2915 18.795C7.2915 18.3108 7.6835 17.92 8.1665 17.92H13.9998C14.4828 17.92 14.8748 18.3132 14.8748 18.795C14.8748 19.2768 14.4828 19.67 13.9998 19.67Z" fill="#F7F9F9"/>
</svg>
