<svg width="28" height="28" viewBox="0 0 28 28" fill="none" xmlns="http://www.w3.org/2000/svg">
<path d="M19.8333 15.75C20.7998 15.75 21.5833 14.9665 21.5833 14C21.5833 13.0335 20.7998 12.25 19.8333 12.25C18.8668 12.25 18.0833 13.0335 18.0833 14C18.0833 14.9665 18.8668 15.75 19.8333 15.75Z" fill="#F7F9F9"/>
<path d="M14 15.75C14.9665 15.75 15.75 14.9665 15.75 14C15.75 13.0335 14.9665 12.25 14 12.25C13.0335 12.25 12.25 13.0335 12.25 14C12.25 14.9665 13.0335 15.75 14 15.75Z" fill="#F7F9F9"/>
<path d="M8.1665 15.75C9.133 15.75 9.9165 14.9665 9.9165 14C9.9165 13.0335 9.133 12.25 8.1665 12.25C7.20001 12.25 6.4165 13.0335 6.4165 14C6.4165 14.9665 7.20001 15.75 8.1665 15.75Z" fill="#F7F9F9"/>
<path d="M13.9999 26.5417C7.08392 26.5417 1.45825 20.916 1.45825 14C1.45825 7.084 7.08392 1.45833 13.9999 1.45833C20.9159 1.45833 26.5416 7.084 26.5416 14C26.5416 20.916 20.9159 26.5417 13.9999 26.5417ZM13.9999 3.20833C8.04992 3.20833 3.20825 8.05 3.20825 14C3.20825 19.95 8.04992 24.7917 13.9999 24.7917C19.9499 24.7917 24.7916 19.95 24.7916 14C24.7916 8.05 19.9499 3.20833 13.9999 3.20833Z" fill="#F7F9F9"/>
</svg>
