<svg width="28" height="28" viewBox="0 0 28 28" fill="none" xmlns="http://www.w3.org/2000/svg">
<path d="M27.5836 5.75983C26.6094 6.1915 25.5629 6.48316 24.4628 6.615C25.5851 5.943 26.4461 4.87666 26.8521 3.60733C25.8021 4.23033 24.6389 4.683 23.4011 4.92566C22.4094 3.871 20.9978 3.21066 19.4344 3.21066C16.4338 3.21066 14.0001 5.64433 14.0001 8.64733C14.0001 9.072 14.0491 9.485 14.1401 9.884C9.6216 9.6565 5.61876 7.49233 2.93776 4.20466C2.47109 5.00966 2.20276 5.943 2.20276 6.937C2.20276 8.82233 3.16293 10.4872 4.6201 11.4613C3.72876 11.4322 2.8911 11.1883 2.15843 10.7812V10.8512C2.15843 13.4843 4.03093 15.6812 6.51826 16.1805C6.06093 16.3042 5.58143 16.3695 5.08676 16.3695C4.73676 16.3695 4.39493 16.3368 4.0636 16.2738C4.75543 18.4322 6.7621 20.0048 9.14093 20.0468C7.2801 21.5052 4.93626 22.3743 2.3906 22.3743C1.95193 22.3743 1.5191 22.3487 1.09326 22.2985C3.49893 23.842 6.35493 24.7403 9.42326 24.7403C19.4216 24.7403 24.8874 16.4593 24.8874 9.27733C24.8874 9.044 24.8816 8.80833 24.8711 8.575C25.9328 7.80733 26.8544 6.85183 27.5813 5.76333L27.5836 5.75983Z" fill="#1D9BF0"/>
</svg>
